<svg width="313" height="23" viewBox="0 0 313 23" fill="none" xmlns="http://www.w3.org/2000/svg">
<g clip-path="url(#clip0_8_54)">
<path d="M18.3933 17.2219L14.422 13.2477C15.4178 11.9825 16.2402 10.5912 16.8677 9.11025C17.4973 7.62892 17.9256 6.07053 18.141 4.47637C18.1818 4.16871 18.1561 3.85592 18.0656 3.55896C17.9751 3.262 17.8219 2.98772 17.6163 2.75449C17.4107 2.52126 17.1574 2.33446 16.8734 2.20662C16.5893 2.07878 16.2812 2.01283 15.9695 2.0132V2.0132C15.4414 2.01205 14.9308 2.20137 14.5321 2.54612C14.1334 2.89087 13.8736 3.36772 13.8008 3.88845C13.4937 6.13908 12.6334 8.27946 11.2962 10.1197L7.58343 6.40422C7.60767 6.36297 7.63241 6.32212 7.65593 6.28045C8.23282 5.25737 8.59438 4.12802 8.71855 2.96127C8.73113 2.83987 8.71798 2.71718 8.67992 2.60117C8.64187 2.48515 8.57977 2.37837 8.49765 2.28776C8.41552 2.19715 8.3152 2.12472 8.20318 2.07515C8.09115 2.02559 7.96992 2 7.84733 2.00003H0.875592C0.760608 2.00003 0.646749 2.02258 0.540518 2.06638C0.434286 2.11019 0.33776 2.17441 0.256454 2.25535C0.175148 2.3363 0.110653 2.4324 0.0666501 2.53817C0.0226475 2.64393 6.14868e-08 2.75729 6.14868e-08 2.87176V9.81251C-4.59342e-05 9.93471 0.0257141 10.0556 0.0756094 10.1672C0.125505 10.2788 0.198421 10.3788 0.289625 10.4606C0.38083 10.5424 0.488284 10.6041 0.605018 10.6419C0.721752 10.6797 0.845156 10.6926 0.967223 10.6798C2.17141 10.5533 3.33559 10.1769 4.38468 9.57491C4.4254 9.55169 4.4649 9.52706 4.50502 9.50324L8.20154 13.2025L8.21172 13.2127C6.35205 14.5713 4.18066 15.4453 1.89515 15.7553C1.37544 15.8233 0.898178 16.0768 0.551994 16.4686C0.20581 16.8605 0.014229 17.3641 0.0128292 17.886V17.9498C0.0126437 18.2556 0.0780498 18.5579 0.204673 18.8365C0.331296 19.1151 0.516217 19.3635 0.747064 19.5652C0.977912 19.767 1.24936 19.9173 1.54326 20.0061C1.83716 20.095 2.14672 20.1203 2.45125 20.0804C4.06247 19.8672 5.63753 19.4391 7.13403 18.8075C8.6384 18.1749 10.0503 17.3434 11.3318 16.3355L15.2894 20.296C15.6988 20.7056 16.2549 20.9366 16.8353 20.938C17.4157 20.9395 17.9729 20.7114 18.3845 20.304V20.304C18.5883 20.1022 18.7503 19.8624 18.861 19.5983C18.9718 19.3342 19.0292 19.0509 19.0301 18.7647C19.0309 18.4785 18.9751 18.195 18.8658 17.9302C18.7566 17.6655 18.596 17.4248 18.3933 17.2219V17.2219Z" fill="white"/>
<path d="M48.2947 2.01389C47.7206 2.01389 47.1699 2.24096 46.764 2.64516C46.358 3.04936 46.1299 3.59758 46.1299 4.1692V18.8252C46.1299 19.3968 46.358 19.9451 46.764 20.3493C47.1699 20.7535 47.7206 20.9805 48.2947 20.9805C48.8689 20.9805 49.4195 20.7535 49.8255 20.3493C50.2315 19.9451 50.4596 19.3968 50.4596 18.8252V4.1692C50.4596 3.59758 50.2315 3.04936 49.8255 2.64516C49.4195 2.24096 48.8689 2.01389 48.2947 2.01389V2.01389Z" fill="white"/>
<path d="M39.1998 2.01389C38.6258 2.01389 38.0753 2.2409 37.6695 2.64499C37.2636 3.04908 37.0356 3.59713 37.0356 4.1686V16.9982H37.0443C36.7498 17.0246 36.4518 17.0379 36.1503 17.0381C34.9759 17.0421 33.8109 16.8282 32.7151 16.4074C29.087 15.0044 26.6471 11.4138 26.6471 7.20477V4.18817L26.6463 4.102C26.6303 3.58595 26.4286 3.09279 26.0781 2.71235C25.7275 2.33191 25.2513 2.08951 24.7363 2.0293C24.711 2.02615 24.6854 2.02352 24.6602 2.02139C24.6478 2.02038 24.6354 2.01936 24.6229 2.01855C24.6081 2.01754 24.5933 2.01673 24.5787 2.01612C24.5472 2.0148 24.5156 2.01379 24.4838 2.01379C24.1995 2.01375 23.9181 2.06946 23.6554 2.17773C23.3928 2.286 23.1542 2.44472 22.9532 2.64482C22.7522 2.84491 22.5928 3.08247 22.484 3.34393C22.3752 3.60538 22.3192 3.8856 22.3192 4.1686C22.3 4.3916 22.2828 4.61683 22.2798 4.84055C22.2671 5.8396 22.2755 6.84756 22.3192 7.8457C22.3651 8.9116 22.5362 9.96848 22.8292 10.9947C23.0637 11.8128 23.3741 12.6073 23.7565 13.3681C24.1343 14.1192 24.5801 14.8344 25.0884 15.5048C25.5943 16.1719 26.1597 16.7922 26.7777 17.358C27.3966 17.9246 28.0657 18.4342 28.777 18.8805C29.4942 19.3306 30.2516 19.714 31.0394 20.0259C31.8409 20.3427 32.6705 20.5838 33.5173 20.7461C34.3851 20.9119 35.2668 20.9952 36.1504 20.9949C36.4016 20.9949 36.6508 20.9883 36.898 20.9752H37.0369C38.1846 20.9748 39.2852 20.5206 40.0967 19.7125C40.9081 18.9044 41.364 17.8085 41.364 16.6659V4.1686C41.364 3.59715 41.136 3.04911 40.7301 2.64503C40.3243 2.24094 39.7738 2.01392 39.1998 2.01389V2.01389Z" fill="white"/>
<path d="M92.2605 2.01389H77.5395C77.2552 2.01387 76.9736 2.06961 76.711 2.17792C76.4483 2.28623 76.2097 2.44498 76.0086 2.64513C75.8076 2.84527 75.6481 3.08287 75.5393 3.34437C75.4305 3.60587 75.3745 3.88615 75.3745 4.1692C75.3745 4.45225 75.4305 4.73253 75.5393 4.99403C75.6481 5.25553 75.8076 5.49313 76.0086 5.69327C76.2097 5.89341 76.4483 6.05217 76.711 6.16048C76.9736 6.26879 77.2552 6.32453 77.5395 6.32452H82.735V18.8252C82.735 19.3968 82.9631 19.9451 83.369 20.3493C83.775 20.7535 84.3257 20.9805 84.8998 20.9805C85.1841 20.9805 85.4656 20.9248 85.7283 20.8165C85.9909 20.7082 86.2296 20.5494 86.4306 20.3493C86.6317 20.1491 86.7911 19.9115 86.8999 19.65C87.0087 19.3885 87.0647 19.1083 87.0647 18.8252V6.32452H92.2603C92.8344 6.32452 93.3851 6.09744 93.7911 5.69324C94.1971 5.28904 94.4251 4.74083 94.4251 4.1692C94.4251 3.59761 94.1971 3.04943 93.7911 2.64523C93.3852 2.24104 92.8346 2.01394 92.2605 2.01389Z" fill="white"/>
<path d="M134.97 5.13845C134.972 5.13946 134.971 5.13896 134.97 5.13845V5.13845Z" fill="white"/>
<path d="M135.367 17.3051C135.299 17.2374 135.226 17.1742 135.149 17.1161L129.354 11.3462C131.568 9.81824 133.416 7.82168 134.765 5.49951C134.773 5.48844 134.78 5.47663 134.785 5.46424C134.848 5.35618 134.909 5.24782 134.969 5.13855C134.967 5.13754 134.968 5.13805 134.969 5.13855C135.12 4.83668 135.197 4.50387 135.194 4.16697C135.194 3.59595 134.966 3.04834 134.561 2.64458C134.155 2.24081 133.605 2.01398 133.031 2.01398C132.669 2.01383 132.313 2.10436 131.995 2.27726C131.677 2.45015 131.408 2.69986 131.212 3.0034C131.167 3.08632 131.121 3.1687 131.074 3.25054C130.057 5.03428 128.653 6.5697 126.965 7.74498C125.276 8.92026 123.346 9.70581 121.314 10.0444V4.16687C121.314 3.59586 121.086 3.04825 120.681 2.64448C120.275 2.24072 119.725 2.01389 119.151 2.01389C118.867 2.01387 118.586 2.06955 118.324 2.17774C118.061 2.28593 117.823 2.44452 117.622 2.64445C117.421 2.84437 117.262 3.08172 117.153 3.34294C117.045 3.60415 116.989 3.88413 116.989 4.16687V18.8079C116.989 19.3789 117.217 19.9266 117.622 20.3303C118.028 20.7341 118.578 20.961 119.151 20.961C119.725 20.9609 120.275 20.7341 120.681 20.3303C121.086 19.9265 121.314 19.3789 121.314 18.8079V14.4101C122.701 14.2373 124.064 13.9044 125.373 13.418L132.118 20.1333C132.177 20.2096 132.24 20.282 132.308 20.3498C132.509 20.5498 132.747 20.7084 133.01 20.8166C133.272 20.9248 133.553 20.9805 133.837 20.9805C134.121 20.9805 134.403 20.9248 134.665 20.8166C134.927 20.7084 135.166 20.5498 135.367 20.3498C135.567 20.1499 135.727 19.9126 135.835 19.6514C135.944 19.3902 136 19.1102 136 18.8275C136 18.5448 135.944 18.2648 135.835 18.0036C135.727 17.7423 135.568 17.505 135.367 17.3051V17.3051Z" fill="white"/>
<path d="M104.226 6.32452C104.908 6.32266 105.585 6.45561 106.215 6.71566C106.846 6.9757 107.418 7.35769 107.9 7.83951C108.384 8.31875 108.767 8.8888 109.029 9.51665C109.29 10.1445 109.423 10.8177 109.422 11.4973C109.423 12.1768 109.29 12.85 109.029 13.4779C108.767 14.1057 108.384 14.6758 107.9 15.155C107.418 15.6368 106.846 16.0188 106.215 16.2789C105.585 16.5389 104.908 16.6719 104.226 16.67C103.543 16.6718 102.867 16.5389 102.237 16.2788C101.606 16.0188 101.033 15.6368 100.552 15.155C100.068 14.6758 99.6844 14.1057 99.4232 13.4779C99.162 12.85 99.0284 12.1768 99.0303 11.4973C99.0284 10.8177 99.162 10.1445 99.4232 9.51664C99.6844 8.88878 100.068 8.31874 100.552 7.83951C101.033 7.35771 101.606 6.97572 102.237 6.71567C102.867 6.45563 103.543 6.32268 104.226 6.32452ZM104.226 2.01389C102.975 2.01389 101.736 2.25918 100.581 2.73576C99.4251 3.21235 98.375 3.91089 97.4905 4.79151C96.606 5.67212 95.9044 6.71756 95.4257 7.86814C94.947 9.01871 94.7007 10.2519 94.7007 11.4973C94.7007 12.7426 94.947 13.9758 95.4257 15.1264C95.9044 16.277 96.606 17.3224 97.4905 18.203C98.375 19.0836 99.4251 19.7822 100.581 20.2588C101.736 20.7353 102.975 20.9806 104.226 20.9806C106.752 20.9806 109.175 19.9815 110.961 18.203C112.748 16.4245 113.751 14.0124 113.751 11.4973C113.751 8.98211 112.748 6.56998 110.961 4.7915C109.175 3.01303 106.752 2.01389 104.226 2.01389V2.01389Z" fill="white"/>
<path d="M69.73 16.6504H61.6173C61.6169 16.6504 61.6165 16.6503 61.6161 16.6501C61.6158 16.6498 61.6155 16.6495 61.6153 16.6491C61.6151 16.6487 61.6151 16.6483 61.6151 16.6478C61.6152 16.6474 61.6154 16.647 61.6157 16.6467L71.3395 5.69667C71.7335 5.29058 71.9527 4.74739 71.9503 4.18279C71.9421 3.6022 71.7036 3.04841 71.287 2.64209C70.8704 2.23577 70.3093 2.00986 69.7261 2.01359H56.8521C56.5594 2.01202 56.2693 2.0684 55.9987 2.17947C55.7281 2.29053 55.4824 2.45406 55.2759 2.66054C55.0693 2.86701 54.9061 3.11232 54.7957 3.38218C54.6852 3.65204 54.6298 3.94107 54.6326 4.23246C54.6442 4.80153 54.8794 5.34342 55.2877 5.7418C55.696 6.14019 56.2449 6.36333 56.8167 6.36335H64.978C64.9784 6.36336 64.9788 6.3635 64.9791 6.36373C64.9795 6.36396 64.9798 6.36429 64.9799 6.36467C64.9801 6.36505 64.9802 6.36547 64.9801 6.36588C64.9801 6.36629 64.9799 6.36668 64.9796 6.367L55.5763 16.9639L55.327 17.235C55.0342 17.5065 54.822 17.8529 54.7134 18.2364C54.6962 18.3111 54.6792 18.3859 54.6625 18.4609C54.6419 18.5812 54.6315 18.7031 54.6313 18.8251C54.6313 19.1107 54.6879 19.3936 54.7976 19.6574C54.9074 19.9213 55.0683 20.1611 55.2712 20.363C55.4741 20.565 55.7149 20.7252 55.9799 20.8345C56.245 20.9438 56.5291 21 56.816 21H69.7656C70.3373 21 70.8863 20.7768 71.2946 20.3785C71.7029 19.9801 71.9381 19.4382 71.9497 18.8691C71.9525 18.5777 71.897 18.2887 71.7865 18.0188C71.6761 17.749 71.5128 17.5037 71.3063 17.2972C71.0997 17.0908 70.854 16.9273 70.5834 16.8162C70.3128 16.7052 70.0227 16.6488 69.73 16.6504V16.6504Z" fill="white"/>
<path d="M147.455 3.38767C146.859 2.39317 145.525 1.93062 144.382 2.04626C143.286 2.16189 142 2.92511 142 4.35904V18.8203C142 20.0174 142.971 20.9879 144.168 20.9879V20.9879C145.365 20.9879 146.335 20.0174 146.335 18.8203V9.65531L152.148 19.6465C152.743 20.641 154.125 21.0805 155.268 20.9879C156.34 20.8954 157.602 20.1785 157.602 18.7677V4.19714C157.602 2.78635 156.578 2 155.435 2C154.291 2 153.267 2.78635 153.267 4.19714V13.4251L147.455 3.38767Z" fill="white"/>
<path d="M164.051 21C165.406 21 166.504 19.9015 166.504 18.5465V13.7721H172.626C174.031 13.7721 174.556 12.7313 174.556 11.7831C174.556 10.8348 174.008 9.7247 172.626 9.7247H166.504V6.81059C166.504 6.25552 166.647 6.13988 167.195 6.13988H173.245C174.651 6.13988 175.175 5.09913 175.175 4.15089C175.175 3.20265 174.627 2.09251 173.245 2.09251H165.313C162.455 2.09251 161.597 3.08701 161.597 5.74671V18.5465C161.597 19.9015 162.696 21 164.051 21V21Z" fill="white"/>
<path d="M185.121 21C186.489 21 187.599 19.8909 187.599 18.5227V6.18614H191.243C192.625 6.18614 193.173 5.076 193.173 4.12776C193.173 3.17952 192.649 2.13877 191.243 2.13877H178.999C177.594 2.13877 177.07 3.17952 177.07 4.12776C177.07 5.076 177.618 6.18614 178.999 6.18614H182.644V18.5227C182.644 19.8909 183.753 21 185.121 21V21Z" fill="white"/>
<path d="M209.553 19.8778C210.458 19.8778 211.863 19.5309 212.101 18.7445L214.531 10.2335L215.404 19.0047C215.517 20.1373 216.47 21 217.608 21V21C218.936 21 219.965 19.8394 219.807 18.5209L218.104 4.35904C217.961 2.94824 216.675 2.13877 215.603 2.04626C214.46 1.95374 212.864 2.4163 212.435 3.94274L209.553 14.5353L206.67 3.94274C206.241 2.4163 204.645 1.95374 203.502 2.04626C202.43 2.13877 201.144 2.94824 201.001 4.35904L199.298 18.5178C199.14 19.8379 200.17 21 201.5 21V21C202.637 21 203.59 20.1397 203.706 19.0085L204.598 10.3029L207.004 18.7445C207.242 19.5309 208.647 19.8778 209.553 19.8778Z" fill="white"/>
<path d="M223.504 17.8352C222.951 19.3767 224.094 21 225.731 21V21C226.787 21 227.715 20.3006 228.006 19.2857L228.42 17.8426H234.542L234.962 19.2717C235.264 20.2964 236.204 21 237.272 21V21C238.944 21 240.107 19.339 239.535 17.7684L234.494 3.91961C234.041 2.67071 232.779 2 231.564 2C230.278 2 228.968 2.62445 228.491 3.91961L223.504 17.8352ZM231.493 8.17513L233.303 13.934H229.658L231.493 8.17513Z" fill="white"/>
<path d="M258.661 8.40641V8.12887C258.661 3.98899 255.636 2.09251 251.515 2.09251H247.132C244.273 2.09251 243.416 3.08701 243.416 5.74671V18.5584C243.416 19.9069 244.509 21 245.857 21V21C247.206 21 248.299 19.9069 248.299 18.5584V14.489H251.348L254.267 19.8079C254.67 20.5431 255.442 21 256.281 21V21C258.059 21 259.163 19.0664 258.259 17.5349L255.778 13.3326C257.47 12.2919 258.661 10.6036 258.661 8.40641ZM248.299 6.7412C248.299 6.18614 248.442 6.0705 248.99 6.0705H251.395C252.991 6.0705 253.825 7.06499 253.825 8.24451V8.40641C253.825 9.58593 252.991 10.5804 251.395 10.5804H248.299V6.7412Z" fill="white"/>
<path d="M262.616 18.5941C262.616 19.9228 263.693 21 265.022 21V21C266.351 21 267.428 19.9228 267.428 18.5941V15.9461L269.333 13.8877L272.9 19.8696C273.318 20.5706 274.073 21 274.89 21V21C276.716 21 277.824 18.9859 276.846 17.4434L272.454 10.511L276.956 5.63107C277.885 4.61344 277.575 3.08701 276.48 2.39317C275.503 1.76872 273.955 1.88436 273.026 2.9945L267.428 9.65531V4.33591C267.428 2.80947 266.284 2 265.022 2C263.783 2 262.616 2.80947 262.616 4.33591V18.5941Z" fill="white"/>
<path d="M286.33 6.81059C286.33 6.25552 286.473 6.13988 287.021 6.13988H293.047C294.453 6.13988 294.977 5.09913 294.977 4.15089C294.977 3.20265 294.429 2.09251 293.047 2.09251H285.163C282.304 2.09251 281.447 3.08701 281.447 5.74671V17.3458C281.447 20.0055 282.304 21 285.163 21H293.285C294.667 21 295.215 19.8899 295.215 18.9416C295.215 17.9934 294.691 16.9526 293.285 16.9526H287.021C286.473 16.9526 286.33 16.837 286.33 16.2819V13.5H292.833C294.238 13.5 294.762 12.4592 294.762 11.5341C294.762 10.609 294.214 9.49889 292.833 9.49889H286.33V6.81059Z" fill="white"/>
<path d="M305.413 21C306.781 21 307.89 19.8909 307.89 18.5227V6.18614H311.535C312.916 6.18614 313.464 5.076 313.464 4.12776C313.464 3.17952 312.94 2.13877 311.535 2.13877H299.291C297.885 2.13877 297.361 3.17952 297.361 4.12776C297.361 5.076 297.909 6.18614 299.291 6.18614H302.935V18.5227C302.935 19.8909 304.045 21 305.413 21V21Z" fill="white"/>
</g>
<defs>
<clipPath id="clip0_8_54">
<rect width="313" height="23" fill="white"/>
</clipPath>
</defs>
</svg>
